<?xml version="1.0" encoding="UTF-8" standalone="no"?><!DOCTYPE svg PUBLIC "-//W3C//DTD SVG 1.1//EN" "http://www.w3.org/Graphics/SVG/1.1/DTD/svg11.dtd"><svg width="100%" height="100%" viewBox="0 0 709 250" version="1.1" xmlns="http://www.w3.org/2000/svg" xmlns:xlink="http://www.w3.org/1999/xlink" xml:space="preserve" xmlns:serif="http://www.serif.com/" style="fill-rule:evenodd;clip-rule:evenodd;stroke-linejoin:round;stroke-miterlimit:2;"><g><path d="M22.917,144.988c-0,40.473 25.025,64.696 62.207,64.696c18.54,-0 34.142,-5.147 42.855,-18.672l0,18.672l33.941,-0l0,-192.777l-35.257,0l-0,81.955c-8.004,-13.524 -22.796,-19.58 -41.336,-19.58c-36.271,-0.101 -62.41,24.626 -62.41,65.706Zm104.86,-0c-0,23.113 -15.805,37.547 -34.75,37.547c-19.656,-0 -34.751,-14.434 -34.751,-37.547c-0,-23.517 15.197,-38.252 34.751,-38.252c18.945,-0 34.75,14.937 34.75,38.252Z" style="fill-rule:nonzero;"/><path d="M271.613,159.909c-4.053,14.938 -14.286,22.406 -30.394,22.406c-18.744,0 -34.144,-11.304 -34.549,-31.288l88.853,-0c1.115,-4.946 1.621,-10.194 1.621,-15.947c-0,-35.831 -24.518,-56.016 -60.688,-56.016c-38.599,-0 -65.143,27.352 -65.143,64.494c-0,41.382 29.278,66.21 69.804,66.21c30.596,-0 51.366,-12.717 60.485,-38.05l-29.989,-11.809Zm-64.943,-32.297c3.344,-14.434 15.4,-22.912 29.888,-22.912c15.805,-0 26.544,8.478 26.544,21.801l-0.202,1.111l-56.23,-0Z" style="fill-rule:nonzero;"/><path d="M402.401,159.909c-4.053,14.938 -14.286,22.406 -30.394,22.406c-18.744,0 -34.144,-11.304 -34.549,-31.288l88.853,-0c1.114,-4.946 1.621,-10.194 1.621,-15.947c-0,-35.831 -24.518,-56.016 -60.688,-56.016c-38.601,-0 -65.145,27.352 -65.145,64.494c0,41.382 29.28,66.21 69.806,66.21c30.596,-0 51.366,-12.717 60.485,-38.05l-29.989,-11.809Zm-64.943,-32.297c3.343,-14.434 15.4,-22.912 29.888,-22.912c15.805,-0 26.544,8.478 26.544,21.801l-0.202,1.111l-56.23,-0Z" style="fill-rule:nonzero;"/><path d="M552.36,209.896l-0,-31.793l-74.061,-0l72.035,-69.843l-0,-29.068l-113.979,0l0,30.278l69.602,0l-71.831,70.148l0,30.278l118.234,0Z" style="fill-rule:nonzero;"/><path d="M655.428,159.909c-4.053,14.938 -14.285,22.406 -30.394,22.406c-18.742,0 -34.143,-11.304 -34.549,-31.288l88.853,-0c1.115,-4.946 1.621,-10.194 1.621,-15.947c-0,-35.831 -24.518,-56.016 -60.686,-56.016c-38.601,-0 -65.145,27.352 -65.145,64.494c-0,41.382 29.279,66.21 69.805,66.21c30.597,-0 51.365,-12.717 60.484,-38.05l-29.989,-11.809Zm-64.943,-32.297c3.344,-14.434 15.4,-22.912 29.888,-22.912c15.805,-0 26.545,8.478 26.545,21.801l-0.203,1.111l-56.23,-0Z" style="fill-rule:nonzero;"/></g></svg>